HIERARCHY
ROOT Root
{
  OFFSET 0.0 0.0 0.0
  CHANNELS 6 Xposition Yposition Zposition Zrotation Yrotation Xrotation
  JOINT Hips
  {
    OFFSET 0.0 100.0 0.0
    CHANNELS 6 Xposition Yposition Zposition Zrotation Yrotation Xrotation
    JOINT Spine1
    {
      OFFSET 5.003913 -0.037094 -0.013727
      CHANNELS 3 Zrotation Yrotation Xrotation
      JOINT Spine2
      {
        OFFSET 7.125363 -1e-06 0.0
        CHANNELS 3 Zrotation Yrotation Xrotation
        JOINT Chest
        {
          OFFSET 7.594027 1e-06 0.0
          CHANNELS 3 Zrotation Yrotation Xrotation
          JOINT Neck1
          {
            OFFSET 26.313086 -0.460272 -0.181672
            CHANNELS 3 Zrotation Yrotation Xrotation
            JOINT Neck2
            {
              OFFSET 8.045911 0.0 0.0
              CHANNELS 3 Zrotation Yrotation Xrotation
              JOINT Head
              {
                OFFSET 6.432774 0.0 0.0
                CHANNELS 3 Zrotation Yrotation Xrotation
                JOINT HeadEnd
                {
                  OFFSET 16.169773 0.06451 0.00362
                  CHANNELS 3 Zrotation Yrotation Xrotation
                }
                JOINT Jaw
                {
                  OFFSET 0.108741 3.12938 0.002639
                  CHANNELS 3 Zrotation Yrotation Xrotation
                }
                JOINT LeftEye
                {
                  OFFSET 4.45173 8.166359 3.206392
                  CHANNELS 3 Zrotation Yrotation Xrotation
                }
                JOINT RightEye
                {
                  OFFSET 4.436895 8.135758 -3.222429
                  CHANNELS 3 Zrotation Yrotation Xrotation
                }
              }
            }
          }
          JOINT LeftShoulder
          {
            OFFSET 23.218927 5.195579 1.621656
            CHANNELS 3 Zrotation Yrotation Xrotation
            JOINT LeftArm
            {
              OFFSET 15.902118 2e-06 -2e-06
              CHANNELS 3 Zrotation Yrotation Xrotation
              JOINT LeftForeArm
              {
                OFFSET 28.739307 0.0 -1e-06
                CHANNELS 3 Zrotation Yrotation Xrotation
                JOINT LeftHand
                {
                  OFFSET 27.093981 -4e-06 0.0
                  CHANNELS 3 Zrotation Yrotation Xrotation
                  JOINT LeftHandThumb1
                  {
                    OFFSET 2.276781 3.380274 0.83384
                    CHANNELS 3 Zrotation Yrotation Xrotation
                    JOINT LeftHandThumb2
                    {
                      OFFSET 4.705309 -1e-06 -1e-06
                      CHANNELS 3 Zrotation Yrotation Xrotation
                      JOINT LeftHandThumb3
                      {
                        OFFSET 2.798515 0.0 3e-06
                        CHANNELS 3 Zrotation Yrotation Xrotation
                        JOINT LeftHandThumbEnd
                        {
                          OFFSET 3.180793 4e-06 -4e-06
                          CHANNELS 3 Zrotation Yrotation Xrotation
                        }
                      }
                    }
                  }
                  JOINT LeftHandIndex1
                  {
                    OFFSET 3.247786 2.352677 0.137192
                    CHANNELS 3 Zrotation Yrotation Xrotation
                    JOINT LeftHandIndex2
                    {
                      OFFSET 6.367095 1e-06 0.0
                      CHANNELS 3 Zrotation Yrotation Xrotation
                      JOINT LeftHandIndex3
                      {
                        OFFSET 3.662364 0.0 0.0
                        CHANNELS 3 Zrotation Yrotation Xrotation
                        JOINT LeftHandIndex4
                        {
                          OFFSET 2.329242 4e-06 -4e-06
                          CHANNELS 3 Zrotation Yrotation Xrotation
                          JOINT LeftHandIndexEnd
                          {
                            OFFSET 2.767823 1e-06 0.0
                            CHANNELS 3 Zrotation Yrotation Xrotation
                          }
                        }
                      }
                    }
                  }
                  JOINT LeftHandMiddle1
                  {
                    OFFSET 3.163612 0.945023 -0.406112
                    CHANNELS 3 Zrotation Yrotation Xrotation
                    JOINT LeftHandMiddle2
                    {
                      OFFSET 6.276789 3e-06 0.0
                      CHANNELS 3 Zrotation Yrotation Xrotation
                      JOINT LeftHandMiddle3
                      {
                        OFFSET 4.35652 -1e-06 4e-06
                        CHANNELS 3 Zrotation Yrotation Xrotation
                        JOINT LeftHandMiddle4
                        {
                          OFFSET 2.996877 0.0 8e-06
                          CHANNELS 3 Zrotation Yrotation Xrotation
                          JOINT LeftHandMiddleEnd
                          {
                            OFFSET 2.323256 3e-06 -4e-06
                            CHANNELS 3 Zrotation Yrotation Xrotation
                          }
                        }
                      }
                    }
                  }
                  JOINT LeftHandRing1
                  {
                    OFFSET 2.882606 -0.309162 0.107445
                    CHANNELS 3 Zrotation Yrotation Xrotation
                    JOINT LeftHandRing2
                    {
                      OFFSET 6.033198 0.0 4e-06
                      CHANNELS 3 Zrotation Yrotation Xrotation
                      JOINT LeftHandRing3
                      {
                        OFFSET 4.350578 3e-06 0.0
                        CHANNELS 3 Zrotation Yrotation Xrotation
                        JOINT LeftHandRing4
                        {
                          OFFSET 2.651321 2e-06 -7e-06
                          CHANNELS 3 Zrotation Yrotation Xrotation
                          JOINT LeftHandRingEnd
                          {
                            OFFSET 1.937663 1e-06 -4e-06
                            CHANNELS 3 Zrotation Yrotation Xrotation
                          }
                        }
                      }
                    }
                  }
                  JOINT LeftHandPinky1
                  {
                    OFFSET 2.865315 -1.525436 0.575687
                    CHANNELS 3 Zrotation Yrotation Xrotation
                    JOINT LeftHandPinky2
                    {
                      OFFSET 5.54936 1e-06 -8e-06
                      CHANNELS 3 Zrotation Yrotation Xrotation
                      JOINT LeftHandPinky3
                      {
                        OFFSET 3.070974 0.0 -4e-06
                        CHANNELS 3 Zrotation Yrotation Xrotation
                        JOINT LeftHandPinky4
                        {
                          OFFSET 1.549672 1e-06 0.0
                          CHANNELS 3 Zrotation Yrotation Xrotation
                          JOINT LeftHandPinkyEnd
                          {
                            OFFSET 1.952123 0.0 0.0
                            CHANNELS 3 Zrotation Yrotation Xrotation
                          }
                        }
                      }
                    }
                  }
                }
              }
            }
          }
          JOINT RightShoulder
          {
            OFFSET 23.161716 5.296122 -1.380114
            CHANNELS 3 Zrotation Yrotation Xrotation
            JOINT RightArm
            {
              OFFSET -16.027195 -2e-06 1.1e-05
              CHANNELS 3 Zrotation Yrotation Xrotation
              JOINT RightForeArm
              {
                OFFSET -28.736639 4e-06 2e-06
                CHANNELS 3 Zrotation Yrotation Xrotation
                JOINT RightHand
                {
                  OFFSET -27.133619 6e-06 0.0
                  CHANNELS 3 Zrotation Yrotation Xrotation
                  JOINT RightHandThumb1
                  {
                    OFFSET -2.274328 -3.351035 -0.83067
                    CHANNELS 3 Zrotation Yrotation Xrotation
                    JOINT RightHandThumb2
                    {
                      OFFSET -4.703594 -3e-06 2e-06
                      CHANNELS 3 Zrotation Yrotation Xrotation
                      JOINT RightHandThumb3
                      {
                        OFFSET -2.794935 -4e-06 -3e-06
                        CHANNELS 3 Zrotation Yrotation Xrotation
                        JOINT RightHandThumbEnd
                        {
                          OFFSET -3.183852 4e-06 1e-06
                          CHANNELS 3 Zrotation Yrotation Xrotation
                        }
                      }
                    }
                  }
                  JOINT RightHandIndex1
                  {
                    OFFSET -3.253496 -2.33755 -0.127667
                    CHANNELS 3 Zrotation Yrotation Xrotation
                    JOINT RightHandIndex2
                    {
                      OFFSET -6.344434 0.0 0.0
                      CHANNELS 3 Zrotation Yrotation Xrotation
                      JOINT RightHandIndex3
                      {
                        OFFSET -3.654871 0.0 -8e-06
                        CHANNELS 3 Zrotation Yrotation Xrotation
                        JOINT RightHandIndex4
                        {
                          OFFSET -2.327586 -1e-06 0.0
                          CHANNELS 3 Zrotation Yrotation Xrotation
                          JOINT RightHandIndexEnd
                          {
                            OFFSET -2.770001 3e-06 8e-06
                            CHANNELS 3 Zrotation Yrotation Xrotation
                          }
                        }
                      }
                    }
                  }
                  JOINT RightHandMiddle1
                  {
                    OFFSET -3.168223 -0.944764 0.411762
                    CHANNELS 3 Zrotation Yrotation Xrotation
                    JOINT RightHandMiddle2
                    {
                      OFFSET -6.266691 -1e-06 -4e-06
                      CHANNELS 3 Zrotation Yrotation Xrotation
                      JOINT RightHandMiddle3
                      {
                        OFFSET -4.348901 0.0 0.0
                        CHANNELS 3 Zrotation Yrotation Xrotation
                        JOINT RightHandMiddle4
                        {
                          OFFSET -3.00024 2e-06 -4e-06
                          CHANNELS 3 Zrotation Yrotation Xrotation
                          JOINT RightHandMiddleEnd
                          {
                            OFFSET -2.321477 -4e-06 -4e-06
                            CHANNELS 3 Zrotation Yrotation Xrotation
                          }
                        }
                      }
                    }
                  }
                  JOINT RightHandRing1
                  {
                    OFFSET -2.885654 0.293261 -0.119232
                    CHANNELS 3 Zrotation Yrotation Xrotation
                    JOINT RightHandRing2
                    {
                      OFFSET -6.032835 -1e-06 -4e-06
                      CHANNELS 3 Zrotation Yrotation Xrotation
                      JOINT RightHandRing3
                      {
                        OFFSET -4.33881 0.0 -4e-06
                        CHANNELS 3 Zrotation Yrotation Xrotation
                        JOINT RightHandRing4
                        {
                          OFFSET -2.654903 -4e-06 -4e-06
                          CHANNELS 3 Zrotation Yrotation Xrotation
                          JOINT RightHandRingEnd
                          {
                            OFFSET -1.935122 0.0 4e-06
                            CHANNELS 3 Zrotation Yrotation Xrotation
                          }
                        }
                      }
                    }
                  }
                  JOINT RightHandPinky1
                  {
                    OFFSET -2.866241 1.503904 -0.60527
                    CHANNELS 3 Zrotation Yrotation Xrotation
                    JOINT RightHandPinky2
                    {
                      OFFSET -5.553177 -2e-06 0.0
                      CHANNELS 3 Zrotation Yrotation Xrotation
                      JOINT RightHandPinky3
                      {
                        OFFSET -3.062664 -1e-06 -4e-06
                        CHANNELS 3 Zrotation Yrotation Xrotation
                        JOINT RightHandPinky4
                        {
                          OFFSET -1.546529 2e-06 4e-06
                          CHANNELS 3 Zrotation Yrotation Xrotation
                          JOINT RightHandPinkyEnd
                          {
                            OFFSET -1.952341 0.0 -4e-06
                            CHANNELS 3 Zrotation Yrotation Xrotation
                          }
                        }
                      }
                    }
                  }
                }
              }
            }
          }
        }
      }
    }
    JOINT LeftLeg
    {
      OFFSET -8.443107 2.567604 10.043214
      CHANNELS 3 Zrotation Yrotation Xrotation
      JOINT LeftShin
      {
        OFFSET 43.229198 1e-06 -1e-06
        CHANNELS 3 Zrotation Yrotation Xrotation
        JOINT LeftFoot
        {
          OFFSET 42.298611 1e-06 1e-06
          CHANNELS 3 Zrotation Yrotation Xrotation
          JOINT LeftToeBase
          {
            OFFSET 14.165858 1e-06 0.0
            CHANNELS 3 Zrotation Yrotation Xrotation
            JOINT LeftToeEnd
            {
              OFFSET 6.7141 -0.234461 0.0
              CHANNELS 3 Zrotation Yrotation Xrotation
            }
          }
        }
      }
    }
    JOINT RightLeg
    {
      OFFSET -8.303923 2.592729 -10.047278
      CHANNELS 3 Zrotation Yrotation Xrotation
      JOINT RightShin
      {
        OFFSET -43.369682 0.0 1e-06
        CHANNELS 3 Zrotation Yrotation Xrotation
        JOINT RightFoot
        {
          OFFSET -42.260784 4e-06 2e-06
          CHANNELS 3 Zrotation Yrotation Xrotation
          JOINT RightToeBase
          {
            OFFSET -14.222245 -2e-06 -1e-06
            CHANNELS 3 Zrotation Yrotation Xrotation
            JOINT RightToeEnd
            {
              OFFSET -6.660062 0.232574 -2e-06
              CHANNELS 3 Zrotation Yrotation Xrotation
            }
          }
        }
      }
    }
  }
}
MOTION
Frames: 4
Frame Time: 0.03333333333333333
0.0 0.0 0.0 0.0 -0.0 0.0 0.675702 100.248932 2.739245 90.141495 0.450859 90.118134 -1.202848 0.538223 -0.08678 -10.921917 -0.38506 0.441904 13.127765 0.558472 -1.658624 16.994429 1.889326 2.736466 -2.503513 -0.681955 0.18621 -36.287174 -1.295866 1.954819 6e-06 -0.0 0.0 0.058877 -0.01317 -0.110005 0.166207 -0.044928 -0.116428 0.159401 0.017012 -0.102543 -104.143608 -74.543221 112.77095 25.579693 -71.770805 9.67457 26.711517 -0.395247 -0.088848 -0.020121 -11.661762 9.798314 17.636625 -26.322733 52.411201 -19.466663 -14.395598 29.410389 1e-06 -8.774821 -0.0 16.593603 -17.896221 5.628166 -0.609777 -1.795654 -3.889326 -4.807088 -11.04681 -2.937853 3e-06 -20.976015 1e-06 -5.019971 -25.033556 -4.03188 4e-06 0.0 1e-06 -10.634534 -5.686972 -3.565586 10.573275 -17.922947 -3.113902 2e-06 -13.821209 1e-06 -0.501779 -31.181501 -4.027014 -11.426115 -59.881924 7.142612 -13.982715 -7.150199 -2.875041 13.77273 -8.401493 -3.218242 0.347732 -34.211552 0.771657 -0.963029 -17.73337 2.621018 1e-06 -1e-06 -1e-06 -17.346422 -20.095217 -4.201784 21.757557 -1.638375 3.866426 1e-06 -6.338823 1e-06 -1.69759 -22.591743 -6.194007 -1e-06 -5e-06 -1e-06 48.461285 -76.438133 141.500381 33.892097 -63.025162 11.786764 27.000841 -0.715354 0.006942 -12.943534 4.608356 4.870504 22.182121 -20.3759 49.933319 -16.701815 -16.743528 28.476532 -4e-06 -12.690602 1e-06 16.34861 -17.264481 2.287219 -0.105918 -1.513856 -4.275878 -5.039042 -5.612873 -2.953559 5e-06 -11.020527 -1e-06 -6.111298 -15.895338 -3.840469 0.0 1e-06 -1e-06 -10.28337 -5.680289 -4.341836 11.028296 -11.302407 -2.372633 -1.384269 -14.238583 -6.32012 -0.625438 -26.924192 -3.827601 -3.839686 -49.502415 -4.068903 -13.708524 -7.363476 -3.720939 18.141148 -14.052741 -3.242673 6e-06 -18.787275 -0.0 -0.429712 -8.456045 2.555505 -0.0 1e-06 -1e-06 -15.923536 -20.094484 -5.473585 30.419222 -7.190827 1.735926 1e-06 -8.162929 -1e-06 -1.861903 -22.861473 -6.167942 -0.0 -3e-06 -1e-06 177.64888 -5.344407 -11.541717 10.449459 -0.02457 -0.010842 -75.572334 -3.34589 -4.67594 -7.13913 1.587239 2.086926 -0.999999 1e-06 0.0 -1.309517 -0.247336 -12.297135 6.378446 0.033584 -0.109889 -76.387962 -1.729527 -3.945999 -7.038462 0.807175 1.624877 -1.000002 -0.0 0.0 
0.0 0.0 0.0 0.0 -0.0 0.0 0.672842 100.275681 2.663489 90.142593 0.41182 90.180702 -1.209995 0.516943 -0.114378 -10.913188 -0.358602 0.52097 13.094529 0.560101 -1.695646 16.994156 1.88273 2.741707 -2.466489 -0.670755 0.19396 -36.252277 -1.343743 1.882138 5e-06 -0.0 0.0 0.058469 -0.008431 -0.083795 0.180471 -0.042048 -0.086533 0.17539 0.023642 -0.08027 -104.078407 -74.628113 112.678505 25.774324 -71.780937 9.462312 26.803793 -0.47126 -0.136528 -0.071813 -11.66786 9.795825 17.636633 -26.322741 52.411201 -19.466669 -14.3956 29.410395 -2e-06 -8.774824 1e-06 16.591188 -17.86043 5.618296 -0.609775 -1.795654 -3.88933 -4.807088 -11.046814 -2.93785 6e-06 -20.976021 -0.0 -5.019969 -25.033562 -4.031882 6e-06 -1e-06 2e-06 -10.634535 -5.686971 -3.565589 10.573278 -17.922958 -3.113901 4e-06 -13.821213 1e-06 -0.501776 -31.181511 -4.027015 -11.44313 -59.809647 7.222356 -13.982716 -7.150198 -2.87504 13.772733 -8.401497 -3.218243 0.347736 -34.211559 0.771655 -0.963027 -17.733376 2.621021 -0.0 -1e-06 -1e-06 -17.346418 -20.095221 -4.20178 21.757561 -1.638377 3.866427 2e-06 -6.338825 1e-06 -1.697588 -22.591745 -6.194007 1e-06 -5e-06 -3e-06 48.485794 -76.447662 141.482864 34.057537 -63.018959 11.728806 26.994968 -0.699932 0.001967 -12.853852 4.494247 4.6718 22.182117 -20.375896 49.933319 -16.701815 -16.743526 28.476528 -4e-06 -12.6906 1e-06 16.353075 -17.262674 2.292191 -0.105919 -1.513856 -4.275879 -5.039039 -5.612871 -2.953555 4e-06 -11.020525 -3e-06 -6.111295 -15.895334 -3.840469 -1e-06 0.0 2e-06 -10.283369 -5.680288 -4.341836 11.028294 -11.302406 -2.372633 -1.384268 -14.23858 -6.32012 -0.625437 -26.924192 -3.827602 -3.878019 -49.616745 -4.043187 -13.708523 -7.363474 -3.720937 18.141146 -14.05274 -3.242674 6e-06 -18.787271 -1e-06 -0.429711 -8.456045 2.555506 -0.0 1e-06 -0.0 -15.923536 -20.094482 -5.473584 30.41921 -7.190827 1.735926 1e-06 -8.162927 1e-06 -1.8619 -22.861473 -6.167943 1e-06 -3e-06 -2e-06 177.742264 -5.302189 -11.493875 10.041975 -0.012637 0.034425 -75.339073 -3.349181 -4.744955 -7.1951 1.604259 2.092705 -0.999998 1e-06 0.0 -0.911534 -0.325524 -12.292381 6.461361 0.026842 -0.08837 -76.748695 -1.708556 -4.086087 -7.11309 0.792713 1.623681 -1.000002 -0.0 -0.0 
0.0 0.0 0.0 0.0 -0.0 0.0 0.661684 100.287483 2.611199 90.15004 0.381891 90.181198 -1.218873 0.501747 -0.128382 -10.917603 -0.34409 0.563559 13.10565 0.565942 -1.698423 17.022787 1.871134 2.752074 -2.479497 -0.650704 0.166541 -36.174805 -1.391952 1.836915 7e-06 0.0 0.0 0.055964 -0.006441 -0.075445 0.170489 -0.046476 -0.07702 0.169443 0.031691 -0.073772 -104.04776 -74.693375 112.611366 25.864435 -71.776726 9.342899 26.91943 -0.534028 -0.180382 -0.141806 -11.703249 9.737585 17.636633 -26.322725 52.411182 -19.466663 -14.395596 29.410385 -0.0 -8.774821 -1e-06 16.598047 -17.863449 5.605969 -0.609777 -1.795654 -3.889324 -4.807088 -11.046812 -2.937853 4e-06 -20.976019 0.0 -5.019968 -25.03356 -4.031881 6e-06 0.0 -0.0 -10.634534 -5.686971 -3.565584 10.573274 -17.922949 -3.113901 3e-06 -13.821206 2e-06 -0.501779 -31.181498 -4.027016 -11.481603 -59.74902 7.222085 -13.982712 -7.150198 -2.875042 13.772729 -8.401493 -3.21824 0.347732 -34.211555 0.771654 -0.963026 -17.733372 2.621017 -0.0 0.0 -2e-06 -17.346418 -20.095219 -4.201784 21.757557 -1.638375 3.866428 2e-06 -6.338826 -0.0 -1.69759 -22.591742 -6.194005 -0.0 -3e-06 -2e-06 48.392647 -76.44825 141.580353 34.238209 -62.98151 11.687351 26.966717 -0.698553 -0.015859 -12.805322 4.422976 4.604687 22.182116 -20.375887 49.933304 -16.701813 -16.74353 28.476522 -3e-06 -12.690601 -1e-06 16.373636 -17.245018 2.288168 -0.105919 -1.513856 -4.275878 -5.039042 -5.612872 -2.953557 3e-06 -11.020525 -1e-06 -6.1113 -15.895334 -3.840472 0.0 1e-06 1e-06 -10.283372 -5.680288 -4.341835 11.028295 -11.302404 -2.372633 -1.38427 -14.23858 -6.32012 -0.625439 -26.924191 -3.827604 -3.901264 -49.646698 -4.055056 -13.708527 -7.363475 -3.720938 18.14115 -14.052737 -3.242673 5e-06 -18.78727 -2e-06 -0.429712 -8.456043 2.555503 1e-06 1e-06 -2e-06 -15.923536 -20.094482 -5.473585 30.41921 -7.190824 1.735927 2e-06 -8.162927 -1e-06 -1.861907 -22.861467 -6.167943 2e-06 -5e-06 -2e-06 177.7724 -5.278738 -11.477863 9.841817 -0.009955 0.063939 -75.217262 -3.35164 -4.811543 -7.198452 1.613481 2.09677 -0.999999 1e-06 0.0 -0.773157 -0.369643 -12.261186 6.516263 0.028218 -0.083026 -76.799751 -1.709947 -4.161725 -7.142141 0.782525 1.62263 -1.000002 -0.0 -0.0 
0.0 0.0 0.0 0.0 -0.0 0.0 0.636854 100.292603 2.571148 90.154144 0.363493 90.155167 -1.223883 0.486507 -0.134884 -10.924634 -0.338346 0.578295 13.123882 0.582604 -1.677173 17.089315 1.844857 2.742753 -2.508197 -0.639442 0.141645 -36.102962 -1.422559 1.810618 7e-06 0.0 0.0 0.052175 -0.006936 -0.077631 0.152611 -0.052041 -0.079452 0.155355 0.035877 -0.076411 -104.032555 -74.738457 112.593163 26.05369 -71.758186 9.188178 27.028662 -0.562963 -0.197611 -0.177747 -11.706629 9.699301 17.636635 -26.322735 52.411198 -19.466665 -14.3956 29.410395 -0.0 -8.774824 -0.0 16.595047 -17.844498 5.595633 -0.609776 -1.795654 -3.889328 -4.80709 -11.046814 -2.937854 4e-06 -20.976021 -2e-06 -5.019969 -25.033566 -4.031883 4e-06 -1e-06 2e-06 -10.634537 -5.686971 -3.565587 10.573277 -17.922958 -3.113902 3e-06 -13.821213 1e-06 -0.501778 -31.181511 -4.027018 -11.485641 -59.715271 7.195319 -13.982718 -7.150199 -2.875042 13.772732 -8.401494 -3.218243 0.347735 -34.211559 0.771656 -0.963027 -17.733372 2.621019 -1e-06 -0.0 -1e-06 -17.346422 -20.095221 -4.201786 21.757566 -1.638379 3.866429 1e-06 -6.338826 -1e-06 -1.69759 -22.591751 -6.194008 0.0 -3e-06 -2e-06 48.272793 -76.449577 141.698029 34.417107 -62.963963 11.707051 26.912489 -0.652648 -0.023836 -12.78598 4.30112 4.554591 22.182121 -20.3759 49.933331 -16.701817 -16.743534 28.476536 -3e-06 -12.690604 0.0 16.387114 -17.22707 2.290806 -0.105919 -1.513857 -4.275884 -5.039042 -5.612873 -2.953557 4e-06 -11.020527 -1e-06 -6.1113 -15.895336 -3.840471 -0.0 0.0 1e-06 -10.283373 -5.680289 -4.341838 11.028297 -11.302408 -2.372633 -1.38427 -14.238585 -6.320121 -0.62544 -26.924198 -3.8276 -3.931919 -49.621895 -4.039026 -13.708529 -7.363479 -3.720938 18.141157 -14.052743 -3.242676 5e-06 -18.787279 -2e-06 -0.429713 -8.456047 2.555506 -0.0 0.0 -1e-06 -15.923539 -20.09449 -5.473586 30.419218 -7.190828 1.735927 2e-06 -8.162927 -1e-06 -1.861903 -22.861483 -6.167943 -0.0 -1e-06 -3e-06 177.783218 -5.276371 -11.488679 9.733177 -0.011283 0.081168 -75.143799 -3.35628 -4.885743 -7.18524 1.611561 2.095515 -1.0 0.0 0.0 -0.701729 -0.395767 -12.220377 6.546283 0.032945 -0.092691 -76.868935 -1.693187 -4.216594 -7.162532 0.774404 1.621581 -1.000001 -0.0 0.0 
